G04 #@! TF.GenerationSoftware,KiCad,Pcbnew,(5.0.1-3-g963ef8bb5)*
G04 #@! TF.CreationDate,2018-12-19T14:21:48+01:00*
G04 #@! TF.ProjectId,atreusPCB,6174726575735043422E6B696361645F,rev?*
G04 #@! TF.SameCoordinates,Original*
G04 #@! TF.FileFunction,Profile,NP*
%FSLAX46Y46*%
G04 Gerber Fmt 4.6, Leading zero omitted, Abs format (unit mm)*
G04 Created by KiCad (PCBNEW (5.0.1-3-g963ef8bb5)) date 2018 December 19, Wednesday 14:21:48*
%MOMM*%
%LPD*%
G01*
G04 APERTURE LIST*
%ADD10C,0.150000*%
G04 APERTURE END LIST*
D10*
X120000000Y-128000001D02*
G75*
G02X173999999Y-128000001I27000000J-39999999D01*
G01*
X132608160Y-63021960D02*
X134500000Y-61500000D01*
X134500000Y-61500000D02*
X138000000Y-60000000D01*
X151000000Y-59000000D02*
X154000000Y-59500000D01*
X151000000Y-64000000D02*
X151000000Y-59000000D01*
X143000000Y-64000000D02*
X151000000Y-64000000D01*
X143000000Y-59000000D02*
X143000000Y-64000000D01*
X140000000Y-59500000D02*
X143000000Y-59000000D01*
X154000000Y-59500000D02*
X156000000Y-60000000D01*
X138000000Y-60000000D02*
X140000000Y-59500000D01*
X176143102Y-129402682D02*
X174000000Y-128000000D01*
X117856898Y-129402682D02*
X120000000Y-128000000D01*
X159500000Y-61500000D02*
X156000000Y-60000000D01*
X161391840Y-63021960D02*
X159500000Y-61500000D01*
X44751321Y-43498231D02*
G75*
G02X132608159Y-63021960I18656037J-123487660D01*
G01*
X161391840Y-63021962D02*
G75*
G02X249248677Y-43498232I69200802J-103963929D01*
G01*
X246428573Y-113783698D02*
X263999940Y-109878952D01*
X193714470Y-125497937D02*
G75*
G02X246428572Y-113783699I44470733J-75654502D01*
G01*
X176143102Y-129402682D02*
X193714470Y-125497936D01*
X47571427Y-113783700D02*
G75*
G02X100285529Y-125497937I8243370J-87368739D01*
G01*
X263999940Y-109878952D02*
X249248678Y-43498230D01*
X100285530Y-125497936D02*
X117856898Y-129402682D01*
X30000060Y-109878952D02*
X47571427Y-113783698D01*
X44751322Y-43498230D02*
X30000060Y-109878952D01*
M02*
