M48
;DRILL file {KiCad (5.0.1-3-g963ef8bb5)} date 2018 December 19, Wednesday 14:22:01
;FORMAT={-:-/ absolute / inch / decimal}
FMAT,2
INCH,TZ
T1C0.0157
T2C0.0300
T3C0.0472
T4C0.0709
T5C0.1260
%
G90
G05
M72
T1
X2.2189Y-1.8338
X2.9363Y-1.8722
X3.6423Y-1.9621
X4.2914Y-2.308
X4.9404Y-2.6539
X5.4331Y-3.7008
X5.4874Y-4.5339
X6.0874Y-4.685
X6.1417Y-3.7402
X6.8535Y-2.5512
X7.5026Y-2.2053
X8.1631Y-1.9108
X8.8805Y-1.8724
X9.5979Y-1.834
T2
X5.4874Y-2.5122
X5.4874Y-2.6122
X5.4874Y-2.7122
X5.4874Y-2.8122
X5.4874Y-2.9122
X5.4874Y-3.0122
X5.4874Y-3.1122
X5.4874Y-3.2122
X5.4874Y-3.3122
X5.4874Y-3.4122
X5.4874Y-3.5122
X5.4874Y-3.6122
X6.0874Y-2.5122
X6.0874Y-2.6122
X6.0874Y-2.7122
X6.0874Y-2.8122
X6.0874Y-2.9122
X6.0874Y-3.0122
X6.0874Y-3.1122
X6.0874Y-3.2122
X6.0874Y-3.3122
X6.0874Y-3.4122
X6.0874Y-3.5122
X6.0874Y-3.6122
T3
X1.8105Y-2.2194
X1.9848Y-2.3428
X8.7992Y-2.9582
X9.0093Y-2.9962
X4.1421Y-4.7944
X4.3163Y-4.9178
X7.706Y-4.5723
X7.9161Y-4.6103
X2.5365Y-2.2194
X2.7107Y-2.3428
X3.7749Y-3.1802
X3.9491Y-3.3036
X8.3636Y-4.2649
X8.5737Y-4.3029
X9.6703Y-3.6115
X9.8804Y-3.6495
X3.1173Y-2.8728
X3.2915Y-2.9962
X7.4156Y-3.2656
X7.6257Y-3.3036
X3.4845Y-4.4869
X3.6587Y-4.6103
X7.0484Y-4.8798
X7.2585Y-4.9178
X2.1009Y-4.1795
X2.2752Y-4.3029
X4.5777Y-2.8343
X4.7519Y-2.9577
X9.0896Y-4.2649
X9.2997Y-4.3029
X9.3799Y-2.3048
X9.59Y-2.3428
X9.5251Y-2.9582
X9.7352Y-2.9962
X6.6128Y-2.9197
X6.8229Y-2.9577
X3.9201Y-2.5269
X4.0943Y-2.6503
X2.8269Y-4.1795
X3.0011Y-4.3029
X6.2455Y-4.5339
X6.4556Y-4.5719
X1.375Y-4.1795
X1.5492Y-4.3029
X6.758Y-3.5731
X6.9681Y-3.6111
X4.9449Y-4.4485
X5.1192Y-4.5719
X9.8155Y-4.2649
X10.0256Y-4.3029
X2.3913Y-2.8728
X2.5655Y-2.9962
X3.2624Y-2.2194
X3.4367Y-2.3428
X4.4325Y-3.4877
X4.6067Y-3.6111
X7.2704Y-2.6123
X7.4805Y-2.6503
X6.9032Y-4.2264
X7.1133Y-4.2645
X4.2873Y-4.141
X4.4615Y-4.2645
X8.2184Y-3.6115
X8.4285Y-3.6495
X2.9721Y-3.5261
X3.1463Y-3.6495
X1.5202Y-3.5261
X1.6944Y-3.6495
X7.928Y-2.3048
X8.1381Y-2.3428
X1.6654Y-2.8728
X1.8396Y-2.9962
X7.5608Y-3.919
X7.7709Y-3.957
X3.6297Y-3.8336
X3.8039Y-3.957
X8.0732Y-2.9582
X8.2833Y-2.9962
X8.9444Y-3.6115
X9.1545Y-3.6495
X2.2461Y-3.5261
X2.4203Y-3.6495
X8.654Y-2.3048
X8.8641Y-2.3428
T4
X1.8238Y-2.0691
X2.2465Y-2.163
X8.7475Y-2.8164
X9.1703Y-2.7225
X4.1554Y-4.6441
X4.5781Y-4.738
X7.6543Y-4.4306
X8.0771Y-4.3366
X2.5497Y-2.0691
X2.9725Y-2.163
X3.7881Y-3.0299
X4.2109Y-3.1239
X8.3119Y-4.1231
X8.7347Y-4.0292
X9.6186Y-3.4698
X10.0414Y-3.3758
X3.1305Y-2.7225
X3.5532Y-2.8164
X7.3639Y-3.1239
X7.7867Y-3.0299
X3.4977Y-4.3366
X3.9205Y-4.4306
X6.9967Y-4.738
X7.4194Y-4.6441
X2.1142Y-4.0292
X2.5369Y-4.1231
X4.5909Y-2.684
X5.0137Y-2.778
X9.0379Y-4.1231
X9.4606Y-4.0292
X9.3283Y-2.163
X9.751Y-2.0691
X9.4735Y-2.8164
X9.8962Y-2.7225
X6.5611Y-2.778
X6.9839Y-2.684
X3.9333Y-2.3766
X4.3561Y-2.4705
X2.8401Y-4.0292
X3.2629Y-4.1231
X6.1939Y-4.3921
X6.6166Y-4.2982
X1.3882Y-4.0292
X1.811Y-4.1231
X6.7063Y-3.4313
X7.1291Y-3.3374
X4.9582Y-4.2982
X5.3809Y-4.3921
X9.7638Y-4.1231
X10.1866Y-4.0292
X2.4045Y-2.7225
X2.8273Y-2.8164
X3.2757Y-2.0691
X3.6984Y-2.163
X4.4457Y-3.3374
X4.8685Y-3.4313
X7.2187Y-2.4705
X7.6415Y-2.3766
X6.8515Y-4.0847
X7.2743Y-3.9907
X4.3005Y-3.9907
X4.7233Y-4.0847
X8.1667Y-3.4698
X8.5895Y-3.3758
X2.9853Y-3.3758
X3.4081Y-3.4698
X1.5334Y-3.3758
X1.9562Y-3.4698
X7.8764Y-2.163
X8.2991Y-2.0691
X1.6786Y-2.7225
X2.1014Y-2.8164
X7.5091Y-3.7772
X7.9319Y-3.6833
X3.6429Y-3.6833
X4.0657Y-3.7772
X8.0216Y-2.8164
X8.4443Y-2.7225
X8.8927Y-3.4698
X9.3155Y-3.3758
X2.2594Y-3.3758
X2.6821Y-3.4698
X8.6023Y-2.163
X9.0251Y-2.0691
T5
X2.0352Y-2.1161
X8.9589Y-2.7694
X4.3667Y-4.6911
X7.8657Y-4.3836
X2.7611Y-2.1161
X3.9995Y-3.0769
X8.5233Y-4.0761
X9.83Y-3.4228
X3.3419Y-2.7694
X7.5753Y-3.0769
X3.7091Y-4.3836
X7.2081Y-4.6911
X2.3255Y-4.0761
X4.8023Y-2.731
X9.2493Y-4.0761
X9.5396Y-2.1161
X9.6848Y-2.7694
X6.7725Y-2.731
X4.1447Y-2.4235
X3.0515Y-4.0761
X6.4053Y-4.3452
X1.5996Y-4.0761
X6.9177Y-3.3843
X5.1696Y-4.3452
X9.9752Y-4.0761
X2.6159Y-2.7694
X3.4871Y-2.1161
X4.6571Y-3.3843
X7.4301Y-2.4235
X7.0629Y-4.0377
X4.5119Y-4.0377
X8.3781Y-3.4228
X3.1967Y-3.4228
X1.7448Y-3.4228
X8.0877Y-2.1161
X1.89Y-2.7694
X7.7205Y-3.7302
X3.8543Y-3.7302
X8.2329Y-2.7694
X9.1041Y-3.4228
X2.4707Y-3.4228
X8.8137Y-2.1161
T0
M30
